<?xml version="1.0" encoding="utf-8"?>
<!-- Generator: Adobe Illustrator 18.1.0, SVG Export Plug-In . SVG Version: 6.00 Build 0)  -->
<svg version="1.1" xmlns="http://www.w3.org/2000/svg" xmlns:xlink="http://www.w3.org/1999/xlink" x="0px" y="0px"
	 viewBox="0 0 700 700" enable-background="new 0 0 700 700" xml:space="preserve">
<g id="Слой_2">
</g>
<g id="Слой_1">
	<polygon fill="#09498E" points="47.3,354 47.3,454 147.3,404 	"/>
	<polygon fill="#F5F7F7" points="247.3,454 247.3,354 147.3,404 	"/>
	<polygon fill="#80C7CD" points="147.3,504 147.3,404 47.3,454 	"/>
	<polygon fill="#F5F7F7" points="147.3,404 147.3,504 247.3,454 	"/>
	<polygon fill="#25A6D9" points="47.3,454 47.3,554 147.3,504 	"/>
	<polygon fill="#F5F7F7" points="247.3,554 247.3,454 147.3,504 	"/>
	<polygon fill="#0F70BC" points="147.3,604 147.3,504 47.3,554 	"/>
	<polygon fill="#5D97D2" points="147.3,504 147.3,604 247.3,554 	"/>
	<polygon fill="#4DBACF" points="247.3,354 247.3,454 347.3,404 	"/>
	<polygon fill="#F5F7F7" points="447.3,454 447.3,354 347.3,404 	"/>
	<polygon fill="#7EC7CD" points="347.3,504 347.3,404 247.3,454 	"/>
	<polygon fill="#4DBACF" points="347.3,404 347.3,504 447.3,454 	"/>
	<polygon fill="#F5F7F7" points="247.3,454 247.3,554 347.3,504 	"/>
	<polygon fill="#F5F7F7" points="447.3,554 447.3,454 347.3,504 	"/>
	<polygon fill="#F5F7F7" points="347.3,604 347.3,504 247.3,554 	"/>
	<polygon fill="#F5F7F7" points="347.3,504 347.3,604 447.3,554 	"/>
	<polygon fill="#4CB9CE" points="247.3,554 247.3,654 347.3,604 	"/>
	<polygon fill="#09ACCC" points="447.3,654 447.3,554 347.3,604 	"/>
	<polygon fill="#1C8EA8" points="347.3,704 347.3,604 247.3,654 	"/>
	<polygon fill="#7DC0C4" points="347.3,604 347.3,704 447.3,654 	"/>
	<polygon fill="#F5F7F7" points="447.3,354 447.3,454 547.3,404 	"/>
	<polygon fill="#FD656C" points="647.3,454 647.3,354 547.3,404 	"/>
	<polygon fill="#F5F7F7" points="547.3,504 547.3,404 447.3,454 	"/>
	<polygon fill="#EB3535" points="547.3,404 547.3,504 647.3,454 	"/>
	<polygon fill="#F5F7F7" points="447.3,454 447.3,554 547.3,504 	"/>
	<polygon fill="#E45C5F" points="647.3,554 647.3,454 547.3,504 	"/>
	<polygon fill="#BF4A6A" points="547.3,604 547.3,504 447.3,554 	"/>
	<polygon fill="#CA4F5A" points="547.3,504 547.3,604 647.3,554 	"/>
	<polygon fill="#EB3535" points="447.3,554 447.3,654 547.3,604 	"/>
	<polygon fill="#1089CE" points="247.3,654 247.3,554 147.3,604 	"/>
	<polygon fill="#715C92" points="247.3,154 247.3,54 147.3,104 	"/>
	<polygon fill="#FD6571" points="147.3,204 147.3,104 47.3,154 	"/>
	<polygon fill="#EA5A61" points="147.3,104 147.3,204 247.3,154 	"/>
	<polygon fill="#4A3375" points="347.3,104 347.3,4 247.3,54 	"/>
	<polygon fill="#0D589C" points="347.3,4 347.3,104 447.3,54 	"/>
	<polygon fill="#6E5C94" points="247.3,54 247.3,154 347.3,104 	"/>
	<polygon fill="#1189D2" points="447.3,154 447.3,54 347.3,104 	"/>
	<polygon fill="#F5F7F7" points="347.3,204 347.3,104 247.3,154 	"/>
	<polygon fill="#F5F7F7" points="347.3,104 347.3,204 447.3,154 	"/>
	<polygon fill="#F5F7F7" points="247.3,154 247.3,254 347.3,204 	"/>
	<polygon fill="#F5F7F7" points="447.3,254 447.3,154 347.3,204 	"/>
	<polygon fill="#0D8CD1" points="347.3,304 347.3,204 247.3,254 	"/>
	<polygon fill="#7EC7CA" points="347.3,204 347.3,304 447.3,254 	"/>
	<polygon fill="#F5F7F7" points="247.3,254 247.3,354 347.3,304 	"/>
	<polygon fill="#7EC7CA" points="447.3,354 447.3,254 347.3,304 	"/>
	<polygon fill="#F5F7F7" points="347.3,404 347.3,304 247.3,354 	"/>
	<polygon fill="#F5F7F7" points="347.3,304 347.3,404 447.3,354 	"/>
	<polygon fill="#6ABCD9" points="447.3,54 447.3,154 547.3,104 	"/>
	<polygon fill="#0BACCA" points="547.3,204 547.3,104 447.3,154 	"/>
	<polygon fill="#60BAC3" points="547.3,104 547.3,204 647.3,154 	"/>
	<polygon fill="#F5F7F7" points="447.3,154 447.3,254 547.3,204 	"/>
	<polygon fill="#82C6CA" points="647.3,254 647.3,154 547.3,204 	"/>
	<polygon fill="#F5F7F7" points="547.3,304 547.3,204 447.3,254 	"/>
	<polygon fill="#BF4A6B" points="547.3,204 547.3,304 647.3,254 	"/>
	<polygon fill="#F5F7F7" points="447.3,254 447.3,354 547.3,304 	"/>
	<polygon fill="#CB748C" points="647.3,354 647.3,254 547.3,304 	"/>
	<polygon fill="#24D1B8" points="547.3,404 547.3,304 447.3,354 	"/>
	<polygon fill="#CA4F5A" points="547.3,304 547.3,404 647.3,354 	"/>
	<polygon fill="#EC343E" points="47.3,154 47.3,254 147.3,204 	"/>
	<polygon fill="#F5F7F7" points="247.3,254 247.3,154 147.3,204 	"/>
	<polygon fill="#6E5C95" points="147.3,304 147.3,204 47.3,254 	"/>
	<polygon fill="#F5F7F7" points="147.3,204 147.3,304 247.3,254 	"/>
	<polygon fill="#493376" points="47.3,254 47.3,354 147.3,304 	"/>
	<polygon fill="#F5F7F7" points="247.3,354 247.3,254 147.3,304 	"/>
	<polygon fill="#10579E" points="147.3,404 147.3,304 47.3,354 	"/>
	<polygon fill="#80C8CD" points="147.3,304 147.3,404 247.3,354 	"/>
</g>
</svg>
